<?xml version="1.0" encoding="UTF-8"?>
<svg width="360" height="437" version="1.1" viewBox="0 0 360 437" xmlns="http://www.w3.org/2000/svg">
<rect x="-9.1654" y="-6.8683" width="382.98" height="451.07" fill="#fff"/>
<path d="m164.74 266.4c4.6003-0.92006 2.9753-2.4742-2.0422-1.9531-2.3074 0.23967-6.8952 0.48188-10.195 0.53826-5.9431 0.10154-5.9716 0.11589-3 1.5145 2.9087 1.369 8.0626 1.3353 15.237-0.0997zm-0.80403 4.9478c0.23834-0.21099-0.0188-0.83577-0.57146-1.3884-1.2407-1.2407-8.5588 0.12887-9.0824 1.6998-0.24901 0.74703 1.1786 0.93649 4.4265 0.58745 2.6367-0.28335 4.989-0.6878 5.2274-0.89879zm-3.4333 3.6497c0.33992-0.55-0.11008-1-1-1s-1.3399 0.45-1 1 0.78992 1 1 1 0.66008-0.45 1-1z" fill="#fff"/>
<path d="m163.91 53.927c2.5238-2.1013 2.0611-3.5064-1.3478-4.0932-1.487-0.25599-2.0973 0.42234-2.6237 2.9164-0.80351 3.8067 0.38859 4.16 3.9715 1.1768zm-9.2542-0.41901c-1.1957-2.5779-3.9756-3.2235-6.6363-1.5411-1.175 0.74302-0.76254 1.2474 2 2.4455 5.1621 2.2388 6.0169 2.0721 4.6363-0.90446zm10.344 25.492c0-0.55-0.42344-1-0.94098-1s-1.2191 0.45-1.559 1 0.0835 1 0.94098 1c0.85746 0 1.559-0.45 1.559-1zm-10 0c0-0.55-0.7875-0.99311-1.75-0.98469-1.4956 0.01309-1.5319 0.15626-0.25 0.98469 1.8872 1.2196 2 1.2196 2 0zm4.75 21.75c-0.22917-0.6875-1.4667-1.25-2.75-1.25s-2.5208 0.5625-2.75 1.25c-0.27485 0.82456 0.66111 1.25 2.75 1.25s3.0248-0.42544 2.75-1.25zm1.25 25.25c1.0854-0.70141 0.25608-0.95418-3-0.9144-3.4246 0.0418-4.0221 0.26035-2.5 0.9144 2.6773 1.1505 3.7198 1.1505 5.5 0zm3 45.059c0-1.6764-1.7735-2.0915-2.3638-0.55328-0.3483 0.90766 3e-3 1.4943 0.89521 1.4943 0.80774 0 1.4686-0.42344 1.4686-0.94098zm-9-0.55902c0-0.825-0.64844-1.5-1.441-1.5-1.9333 0-2.8908 1.7004-1.3152 2.3356 2.183 0.88012 2.7562 0.70634 2.7562-0.83564zm4.3761 39.375c2.023-0.92175 8.3485-10.64 7.3993-11.368-2.7163-2.0836-4.1562-2.0345-6.4095 0.21876-2.6805 2.6805-4.3576 2.5936-5.8659-0.30395-0.6958-1.3366-1.8366-1.8248-3.75-1.6046-1.5125 0.17403-2.75 0.52946-2.75 0.78984 0 2.111 7.2675 13.394 8.6273 13.394 0.15325 0 1.3902-0.50647 2.7488-1.1255z" fill="#e4ba94"/>
<path d="m173.27 50.398c0.33105-0.33104-0.10465-2.0836-0.96822-3.8945-2.2131-4.6409-1.0957-8.3945 2.7263-9.159 4.9019-0.98038 3.2544-4.3447-2.1275-4.3447-1.528 0-1.814-0.49101-1.3539-2.3242 0.72121-2.8735-1.6472-5.0956-4.4747-4.1982-1.114 0.35358-3.9023 2.2109-6.1962 4.1274s-4.8765 3.3486-5.7392 3.1825-2.8464-2.205-4.4084-4.5307c-2.78-4.1393-2.8916-4.1948-5.2834-2.6277-1.3438 0.88052-2.4434 2.0763-2.4434 2.6572 0 1.954-3.2902 4.7137-5.6198 4.7137-2.9051 0-5.255 3.7271-2.9158 4.6247 0.85286 0.32727 3.0599 0.3119 4.9046-0.03417 4.6633-0.87485 6.0642 1.0346 5.1639 7.0384-0.67753 4.5181-0.63211 4.6288 1.6351 3.985 1.2826-0.36418 3.5695-0.93256 5.082-1.2631 2.3261-0.5083 2.75-1.1119 2.75-3.916 0-2.9998 0.26154-3.2955 2.75-3.1088 2.1891 0.16423 2.8145 0.76393 3.0664 2.9401 0.24341 2.1029 0.85243 2.7338 2.6392 2.7338 1.2775 0 3.3851 0.88503 4.6836 1.9667 2.3525 1.9598 4.9859 2.5748 6.1293 1.4314zm-4.4847 21.176c-0.16806-8.2398 0.70923-10.084 5.2738-11.087 3.7521-0.82409 4.2073-1.664 2.344-4.3244-2.0921-2.9869-7.0967-2.839-11.402 0.33703-4.3817 3.2327-9.2862 3.2327-16.596 0-6.6539-2.9427-8.1274-3.0604-10.575-0.84501-2.826 2.5575-2.205 3.9161 2.4213 5.2972 2.3375 0.69784 4.5806 1.7816 4.9847 2.4083 0.40408 0.62672 0.74158 3.6719 0.75 6.767 0.0183 6.7314 1.6571 8.8123 5.5449 7.0409 2.097-0.95544 2.4704-1.809 2.4704-5.647 0-3.3524 0.38784-4.5214 1.5-4.5214 1.1309 0 1.5 1.2157 1.5 4.941 0 2.7175 0.45 5.2191 1 5.559 0.62464 0.38605 1-1.6563 1-5.441 0-4.7191 0.33171-6.059 1.5-6.059 1.0746 0 1.5 1.0961 1.5 3.8651 0 4.1015 3.0527 9.1349 5.5402 9.1349 1.0818 0 1.361-1.6677 1.2436-7.426zm-17.128 27.176c3.2862-2.778 3.8297-3.8072 3.7419-7.0867-0.0812-3.0339 0.33726-4.0032 2-4.6326 3.1407-1.1888 3.7657-0.30782 3.4884 4.917-0.206 3.8813 0.20265 5.2348 2.2458 7.4383 2.929 3.1588 6.0176 2.736 5.224-0.71509-1.1354-4.9377-1.5629-10.708-0.96881-13.076 0.68057-2.7116 5.339-4.5016 11.016-4.2328 4.644 0.2199 4.0745-1.9004-1.1167-4.1575l-4.7857-2.0808-0.31646 2.4383c-0.5114 3.9402-3.4486 4.7622-14.924 4.1766-11.69-0.59664-14.218-1.8579-14.318-7.1441-0.0525-2.7628-0.18667-2.8979-1.25-1.2584-3.2664 5.0363-3.3979 5.1111-8.59 4.8852-4.8918-0.21284-5.1012-0.11455-5.1012 2.3947 0 2.3409 0.28979 2.5501 2.75 1.9853 1.5125-0.34723 5.3138-0.91004 8.4473-1.2507 5.5834-0.60698 5.711-0.56451 6.3859 2.1242 0.37872 1.5089 0.43356 5.7854 0.12187 9.5033-0.37008 4.4142-0.17433 7.1521 0.56413 7.8906 1.4413 1.4413 0.94199 1.6377 5.3862-2.1191zm20.028 12.062c-0.31922-0.79773-0.55618-0.56078-0.60416 0.60417-0.0434 1.0542 0.19292 1.6448 0.52522 1.3125 0.33229-0.3323 0.36781-1.1948 0.0789-1.9167zm-31.021 1.9375c-0.27741-0.6875-0.50439-0.125-0.50439 1.25s0.22698 1.9375 0.50439 1.25 0.27741-1.8125 0-2.5zm10.054 12.194c3.0385-2.6678 3.5303-3.7576 3.8708-8.5774 0.43064-6.0946 1.0424-7.7132 2.5606-6.775 0.61607 0.38075 0.7444 2.6295 0.32908 5.7663-0.53839 4.0664-0.42242 4.8946 0.55434 3.9588 1.2018-1.1514 1.578-2.9017 1.8409-8.5667 0.0702-1.5125 0.57762-2.75 1.1276-2.75 1.2896 0 1.2975 8.0874 0.0112 11.471-0.80873 2.1271-0.67213 2.7136 0.75 3.22 0.95634 0.34055 2.6794 1.7503 3.8289 3.1327 2.5844 3.1079 5.4099 2.3831 5.4099-1.3879 0-1.4451-0.72261-5.1132-1.6058-8.1512-1.5356-5.2823-1.5202-5.6387 0.35253-8.1539 1.6509-2.2174 2.9624-2.7195 8.3558-3.1993 7.8353-0.69704 11.576-2.4081 9.8396-4.5006-1.4511-1.7485-3.9513-1.8074-9.2554-0.21824-2.8203 0.84497-4.1534 0.88791-4.4021 0.14181-0.19621-0.58862-0.97298-1.913-1.7262-2.943-1.2684-1.7346-1.3323-1.6785-0.86606 0.76032 0.34078 1.7827-0.12903 3.2655-1.4546 4.5911-1.7494 1.7494-3.1965 1.9337-13.586 1.7299-12.112-0.23756-14.651-1.0427-14.651-4.6445 0-1.8067-0.1589-1.79-3.0069 0.31558-2.3291 1.722-3.2758 1.9541-4.2 1.0299-1.6119-1.6119-7.2815-1.5145-8.662 0.14888-1.6812 2.0257-0.35712 2.6507 5.7856 2.7311 3.4325 0.0449 6.739 0.75578 8.5833 1.8453 3.2866 1.9415 3.4327 2.9085 2.0115 13.316-1.2368 9.0567 1.9041 11.242 8.2052 5.71zm-2.5575 22.493c0.83884-2.3198 2.1719-3.7048 4.2698-4.4361 1.6776-0.5848 3.1783-0.67866 3.335-0.20858 0.15669 0.47009 1.5249 0.67271 3.0404 0.45028 2.2872-0.33569 3.1753 0.23546 5.2256 3.3605 1.3586 2.0707 3.039 3.9469 3.7343 4.1693 2.062 0.65949 4.1109-5.7315 3.5181-10.974-0.47718-4.2202-0.23098-5.003 2.4015-7.6354 2.0706-2.0706 4.6805-3.2924 8.8747-4.1548 9.1609-1.8835 8.9633-1.7735 7.0265-3.9136-2.2929-2.5336-7.0596-3.3316-11.663-1.9525-2.9864 0.89476-3.8828 1.7041-4.1196 3.7195-0.40578 3.4535-4.9933 6.1256-7.6588 4.461-2.5729-1.6068-14.891-1.9753-16.376-0.48984-2.1475 2.1475-6.4818 1.3402-8.9454-1.6663-2.4487-2.9882-10.459-7.1658-13.74-7.1658-1.903 0-5.0823 2.4274-5.0823 3.8803 0 0.40559 0.63734 1.611 1.4163 2.6786 1.1595 1.5891 3.0182 2.0318 10.25 2.4411 10.017 0.56697 9.0748-0.80354 7.7106 11.218-1.0883 9.5897 3.907 14.17 6.7822 6.2184zm26.12 26.604c0.2819-1.078-0.0959-3.6655-0.83948-5.75-1.9213-5.3859-1.7905-10.67 0.31019-12.528 1.0182-0.9008 4.7832-1.8445 9.004-2.2569 3.9897-0.3898 7.5263-1.1494 7.8592-1.6881 0.33291-0.53865-0.59072-2.2277-2.0525-3.7535-2.181-2.2764-3.4043-2.732-6.819-2.5394-2.2887 0.12914-4.3293 0.73907-4.5348 1.3554-0.20544 0.61633-1.16 1.1206-2.1212 1.1206-0.96123 0-2.3684 1.1598-3.1271 2.5774-2.1248 3.9701-4.3288 4.7058-7.2393 2.4164-1.372-1.0792-2.8491-3.2068-3.2826-4.728l-0.78809-2.7658-0.57429 3.5c-0.47621 2.9023-1.0439 3.554-3.3243 3.8164-2.601 0.29928-2.75 0.0961-2.75-3.75 0-4.8354-1.2676-5.2489-3.0321-0.98896-2.6865 6.4858-9.7308 7.921-11.383 2.3192-0.77109-2.6137-1.6389-3.2803-5.5-4.2246-8.0359-1.9653-15.084-0.21286-15.084 3.7504 0 3.1751 2.2305 4.0776 10.078 4.0776 14.306 0 18.268 3.988 11.922 12-5.3919 6.8079-3.4617 9.586 3.7725 5.4297 2.6001-1.4939 5.7365-3.2142 6.9697-3.8229 1.8959-0.93583 2.2434-1.9177 2.25-6.3568 6e-3 -3.9965 0.36593-5.25 1.5078-5.25 1.1658 0 1.5157 1.3924 1.5703 6.25 0.0386 3.4375 0.48055 7.15 0.98199 8.25 0.62115 1.3626 0.83778-0.54955 0.67972-6-0.1358-4.6827 0.18266-8.1166 0.768-8.2811 0.55-0.1546 1.1234 0.9704 1.2742 2.5 0.52031 5.2772 1.2687 7.2811 2.7192 7.2811 0.8004 0 2.1961 1.4625 3.1015 3.25 3.3099 6.5344 6.679 8.6344 7.6844 4.79zm-29.279 21.96c2.1562-1.1 5.0632-2 6.4602-2 2.1308 0 2.5398-0.46297 2.5398-2.875 0-4.2759 1.1292-9.125 2.125-9.125 0.48125 0 0.875 3.4016 0.875 7.559 0 5.3414 0.32981 7.3552 1.1242 6.8642 0.75698-0.46784 0.9112-2.7736 0.47215-7.059-0.54572-5.3265-0.40291-6.3642 0.87581-6.3642 1.0032 0 1.5708 1.0302 1.6528 3 0.0687 1.65 0.2375 3.45 0.375 4s0.30625 1.5703 0.375 2.2673c0.0687 0.69702 2.8785 2.361 6.2438 3.6977 5.959 2.3669 6.1549 2.381 7.5 0.54156 2.3108-3.1602 1.3824-7.5066-1.6034-7.5066-2.4616 0-4.0371-2.2011-3.3785-4.7198 0.59774-2.2857 6.3112-5.0834 14.863-7.2778 6.2075-1.5929 7.7029-3.1737 6.1383-6.489-1.5579-3.3012-3.4212-3.558-9.4632-1.3041-3.9792 1.4844-5.1751 2.4161-5.1751 4.0319 0 2.6787-2.7607 5.7588-5.1616 5.7588-1.0184 0-2.7972-1.0875-3.9528-2.4166-1.8667-2.1469-2.687-2.3562-7.3495-1.875-2.901 0.29941-6.8283 0.0202-8.7812-0.6243-3.0807-1.0167-4.1284-0.87667-8.1848 1.0941-5.5448 2.6939-7.9008 1.8289-8.3872-3.0793-0.33921-3.4224-1.6219-4.2596-8.4336-5.5044-3.3628-0.61453-3.8705-0.42259-4.9087 1.856-0.97133 2.1318-0.85215 2.8793 0.73954 4.6381 2.4633 2.722 4.3824 3.7094 8.5321 4.3901 7.5532 1.2391 8.9474 1.7817 10.876 4.2329 3.0544 3.883 2.5883 6.7509-1.4878 9.1559-2.0129 1.1876-3.5 2.8583-3.5 3.9321 0 3.7923 2.2559 4.1308 8 1.2004zm84.262 41.75c-0.419-2.3375-0.7244-7.625-0.67866-11.75 0.0706-6.3652 0.61171-8.6371 3.5764-15.015 4.9967-10.75 10.917-15.327 19.656-15.195 5.4205 0.0818 8.5834 2.1324 11.991 7.7746 1.4734 2.4393 3.0734 4.4352 3.5555 4.4352s3.7942-2.0348 3.5594-7.1223c-0.38168-8.2708 2.1736-12.523-1.4367-20.123-2.2207-4.675-4.1634-8.843-5.3171-9.862-4.7132-4.1643-9.1619-12.727-21.951-13.221-18.971-0.73336-35.684 8.896-43.687 22.267-5.4528 10.955-6.5213 20.14-6.5422 30.561-7e-3 3.3-0.65186 8.4038-1.4339 11.342l-1.4218 5.3418 2.6837-0.81261c4.4663-1.3524 10.89-0.74398 14.383 1.3621 1.8152 1.0945 7.5753 4.7305 12.8 8.08s9.8428 6.1118 10.262 6.1385c0.419 0.0266 0.419-1.8641 0-4.2016zm-61.163 21.144c1.5957-1.7082 2.9012-3.9469 2.9012-4.975 0-1.5544-0.51878-1.7655-3.08-1.2532-2.9209 0.58417-3.063 0.46661-2.75-2.275 0.26106-2.2868 0.8886-2.9556 3.0028-3.2 2.0859-0.24112 2.7446 0.16156 3 1.834 0.25967 1.7003 0.55357 1.4062 1.4227-1.4239l1.0954-3.5669-3.0566 0.23285c-2.2528 0.17161-3.1543-0.23998-3.428-1.5652-0.51307-2.4841 1.57-4.702 4.4162-4.702 3.0096 0 3.0874 1.5322 0.12756 2.5103l-2.25 0.74358 2.4612 0.47028c1.9459 0.37181 3.0957-0.33526 5.4914-3.377 1.6666-2.116 4.2407-5.0885 5.7203-6.6056 3.5008-3.5897 5.9207-12.122 6.4491-22.737 0.47255-9.4941 2.6928-20.779 4.9452-25.134 1.3274-2.567 1.3708-3.0337-0.0225-3.0337-5.5141 0-14.791 7.8682-15 12.648-0.0525 1.2004-0.90197 3.4133-1.8876 4.9176-1.3644 2.0824-2.4619 2.6648-4.5993 2.4406-3.0897-0.32409-6.0572 1.577-6.0572 3.8804 0 0.81266-1.53 3.0076-3.4 4.8776-5.8918 5.8918-11.074 4.0126-16.132-5.85-1.8052-3.52-2.2083-3.75-6.5733-3.75-5.3845 0-7.3756-1.7056-6.618-5.6692 0.58014-3.0348-1.5673-5.3919-7.1492-7.8474-5.7361-2.5233-5.9822-2.0979-3.3344 5.7666 2.6322 7.8182 2.6463 13.317 0.0728 28.324-1.4466 8.4362-0.42086 11.2 7.4533 20.082 2.8492 3.214 6.9526 8.4744 9.1185 11.69 2.1659 3.2154 4.9347 6.2252 6.1529 6.6883 1.2181 0.46314 2.5101 1.3198 2.871 1.9038 0.36898 0.59702 3.9561 1.0617 8.1959 1.0617 7.1452 0 7.6916-0.16255 10.441-3.1058zm-87.599 32.485c2.8521-1.0386 2.8955-1.1365 0.88111-1.986-4.8152-2.0306-11.168-12.876-13.641-23.287-1.6532-6.9594-3.3298-6.2215-5.6385 2.4815-0.8243 3.1074-1.9261 4.5412-4.5928 5.9774-1.9296 1.0392-4.0292 1.427-4.0292 1.8519 0 0.42493-0.50819 1.1198-1.2708 1.1198-0.76258 0-1.212 1.7004-1.4938 3.2129s-0.75424 3.748-1.0499 4.9678c-0.8253 3.4052 2.0591 5.9341 10.335 9.0617l7.5 2.8342 5-2.5709c2.75-1.414 6.35-3.0625 8-3.6633zm126.84 42.694c3.587-1.6094 7.1856-3.9719 7.997-5.25 1.3128-2.068 5.6677-17.244 5.6677-19.751 0-0.539-1.3346-0.21405-2.9657 0.72209-2.7902 1.6013-3.0662 1.6015-4.6641 4e-3 -1.4165-1.4165-1.4816-1.9597-0.3918-3.2728 0.71863-0.86589 1.0529-1.828 0.74288-2.1381-0.31004-0.31004-3.1867 3.0476-6.3925 7.4616s-6.8624 8.5034-8.1258 9.0879c-3.0295 1.4015-13.024 1.3576-17.304-0.0759-4.3832-1.4681-7.6054-4.4088-10.046-9.1684-2.2501-4.3882-1.7582-7.0542 1.7225-9.3348 1.3333-0.8736 2.4267-2.3241 2.4297-3.2234 0.0136-3.9893 2.401-9.5792 5.6064-13.127 5.4394-6.0208 17.237-9.0324 21.933-5.5988 1.3918 1.0177 2.4498 1.1292 3.8097 0.40134 1.7821-0.95376 1.7561-1.0705-0.48579-2.1822-3.2953-1.634-3.6733-5.9512-0.70319-8.0315 2.1335-1.4943 2.1532-1.6014 0.3071-1.6697-1.0849-0.0402-4.4475-0.4247-7.4725-0.85454l-5.5-0.78154-5.8377 5.2797c-6.9661 6.2999-20.654 13.429-25.784 13.429-1.6653 0-1.8769 0.82074-1.8692 7.25 0.0132 10.984 1.0293 17.75 2.6658 17.75 2.7482 0 6.3258 3.2832 8.5566 7.8526 2.794 5.723 9.9576 12.902 15.85 15.884 6.1967 3.1358 12.229 2.9385 20.254-0.66224zm-82.65 2.8648c4.2863-1.616 9.1756-6.756 8.5828-9.0228-0.27556-1.0537-0.0217-1.9159 0.5641-1.9159 3.3882-0.5224 5.2775-3.6947 7.119-6.2635 1.128-1.5735 1.7977-4.1706 2.2334-5.3616 0.4575-1.3428 0.86472-3.0147 1.1519-5.6264l0.52216-4.7485h-3.4292c-2.5578 0-3.4292 0.43102-3.4292 1.6962 0 3.3858-5.103 9.1777-9.5989 10.895-8.084 3.0873-17.401-0.018-17.401-5.7996 0-2.1376-0.5647-3.1263-2-3.5016-2.3306-0.60947-2.6975-2.2898-0.5-2.2898 2.0772 0 1.8652-3.5984-0.52196-8.8592-2.0256-4.4639-2.5191-8.8176-1.2127-10.699 3.2552-4.6876 14.644-6.0853 21.25-2.6079 4.335 2.2819 9.7979 10.147 10.62 15.291 0.59578 3.7258 0.76837 3.8747 4.4918 3.8747 3.8492 0 3.8722 0.0237 3.8722 3.9893 0 2.1941-0.8846 6.3174-1.9658 9.1628l-1.9658 5.1735 4.0957-4.1366c2.2526-2.2751 4.9372-4.4037 5.9658-4.7302 1.6238-0.51536 1.8586-1.6055 1.7825-8.2762-0.0482-4.2254-0.38568-9.8726-0.75-12.549l-0.66239-4.8667-5.5-1.6985c-3.025-0.93415-8.6216-3.5816-12.437-5.8832-3.8153-2.3016-7.2765-4.1848-7.6916-4.1848-1.038 0-9.0708-10.554-12.639-16.606-3.7625-6.3812-7.2322-15.664-7.2322-19.349 0-1.5844-0.26887-3.5814-0.5975-4.4378-1.297-3.3798-9.5319 3.4634-12.347 10.261-1.7322 4.1819-0.49425 6.9864 6.4593 14.633 5.9141 6.5034 8.1689 11.95 6.7317 16.262-1.4215 4.2644-3.144 3.896-2.5483-0.54505 0.63595-4.7413-0.95747-7.9743-7.132-14.471-6.5195-6.8593-8.0464-10.198-6.7072-14.668 3.5513-11.853 17.61-20.001 27.142-15.73 1.1882 0.53239 1.5455-0.21346 1.7191-3.5882 0.12049-2.3432 0.72938-6.1296 1.3531-8.4143 1.7763-6.5068 0.75462-20.777-2.0159-28.158-2.7504-7.3269-4.9529-9.7755-15.223-16.924-9.6682-6.7297-12.704-7.9431-23.107-9.2358-7.7198-0.9593-9.0866-0.86516-13.971 0.96229-7.8804 2.9484-12.791 7.6505-17.333 16.596-3.6622 7.2132-3.9223 8.2974-3.9223 16.345 0 8.407 0.10436 8.7856 4.2424 15.39 2.3333 3.7238 4.5288 7.9875 4.8789 9.4749 1.1169 4.7458 4.4173 9.6245 8.385 12.395 4.4411 3.101 5.4731 6.9905 4.7342 17.843-0.49687 7.2979 1.7885 17.633 5.4893 24.824 1.3848 2.6908 4.8828 6.6598 8.472 9.6126 6.4358 5.2946 9.2982 9.5927 9.2982 13.962 0 2.7741 1.4969 3.8015 5.7814 3.9681 1.4046 0.0546 2.7526 0.69679 2.9954 1.427 0.34331 1.0322-0.53598 1.1811-3.9518 0.66882l-4.3934-0.65883 0.32804 4.3312c0.5262 6.9474 1.1208 8.6585 3.2426 9.3319 2.3333 0.74055 2.6835 2.4993 0.49768 2.4993-2.2422 0-1.8458 1.3862 1.7652 6.1723 5.8541 7.7591 18.214 11.86 26.42 8.7664zm135.07 88.811c1.6098-2.0088 3.9008-11.001 7.7067-30.25 5.4874-27.753 5.587-28.228 8.6343-41.136 1.5757-6.6748 3.3665-13.425 3.9795-15 0.61298-1.5752 1.759-5.339 2.5467-8.364 0.78771-3.025 3.4554-9.55 5.9282-14.5 5.7095-11.429 6.3286-15.025 3.6563-21.237-1.1269-2.6196-2.7782-7.9075-3.6695-11.751-1.8607-8.0235-5.3061-12.512-9.604-12.512-1.4799 0-4.2662-0.65824-6.1916-1.4628-3.2452-1.3559-3.6309-1.319-5.2814 0.50471-2.7301 3.0168-5.325 8.4258-4.5252 34.917 0.40617 13.452-1.6939 23.606-1.8186 23.73-0.12469 0.12469 2.107 1.4501-0.62799 1.7784-2.735 0.32831-6.6708 1.1057-8.7462 1.7275-3.5152 1.0532-3.7341 1.342-3.1969 4.2179 0.76061 4.072-0.91326 20.561-4.5264 44.587-2.7116 18.032-4.1998 29.24-5.4773 41.25l-0.50523 4.75h10.358c7.0858 0 10.675-0.39492 11.36-1.25zm-179.19-2c-0.37564-1.7875-1.3202-6.7906-2.099-11.118s-2.5482-11.977-3.932-17c-7.9232-28.758-9.536-36.609-9.536-46.418 0-4.4538 1.6166-10.483 5.0334-18.773 1.9439-4.7162 0.55201-9.7571-3.5603-12.894-2.5099-1.9144-3.4731-3.4274-3.4731-5.4556 0-2.4437-0.97545-3.734-7.8212-7.7764-4.3242-2.5534-6.4203-6.6985-7.4586-6.7107s-1.3322-0.52595-2.6533-1.5417c-2.0324-1.5626-3.2089 0.93324-2.6958-2.229 0.61466-3.7877 2.7832-3.407 5.5567-3.4649 0.96908-0.0202-1.0099-5.9748-0.35772-8.7858 1.8072-7.7892-1.6741-9.3869-12.02-5.5162-3.0385 1.1369-5.9496 1.8043-6.4691 1.4833-2.8576-1.7661-9.0208 15.967-9.321 26.818-0.228 8.2416 2.5436 15.566 8.4205 22.251 7.2291 8.2241 11.066 17.353 13.307 31.665 0.87993 5.6184 2.4942 14.04 3.5872 18.715s2.6285 11.425 3.4122 15c1.3352 6.0912 5.1403 21.126 7.7825 30.75l1.1668 4.25h23.813z" fill="#f2decc"/>
<path d="m278.19 258.78c-2.4719-4.5896-4.2421-10.248-6.5642-21.203-7.0259-33.145-10.088-38.365-21.124-38.928-7.2891-0.37221-15.008 6.6358-18.63 17.341-2.2442 6.6317-2.4113 18.23-0.17067 24.097 1.46 3.8231 2.1245 4.8436 7.3345 7.3338 4.5079 2.5496 9.4193 4.6224 13.033 7.2939 6.2187 3.6942 12.88 7.5889 18.898 11.386 4.4196 2.6098 10.772 3.8735 10.772 1.5745-0.12926-3.3086-2.3239-6.58-3.5485-8.8957zm-13.569 10.295 2.1189-3.9042-5.1189-2.7451c-2.8154-1.5098-6.2995-3.5644-7.7425-4.5656-4.658-3.2323-8.3079-4.8213-14.307-9.1683-8.1995-5.9415-24.83-11.553-30.84-16.241-1.9844-1.5609-4.3716-1.6843-9.0076-1.7999-12.787-0.31887-22.984 8.6156-24.735 21.673-0.61193 4.5613-0.47524 4.9598 2.4726 7.2082 5.1138 3.9005 24.919 7.0248 50.041 7.894 15.528 0.53725 27.334 2.2162 31.141 4.4286 2.9605 1.7204 3.7294 1.3629 5.9777-2.7797zm-132.41 41.835c1.5329-1.8362 2.7872-3.6192 2.7872-3.9622 0-0.56001-21.107-0.0444-21.778 0.53199-0.15289 0.13132 0.17807 1.4382 0.73546 2.9043 1.3137 3.4553 4.358 4.6808 10.505 4.2292 4.1806-0.30717 5.4021-0.89085 7.75-3.7032zm-40.877 3.0755c-0.34091-2.0625-0.62479-4.723-0.63084-5.9121-9e-3 -1.7726-1.5289-2.6551-5.0133-3.1871-2.3375-0.35689-5.375-1.0354-6.75-1.5079-1.375-0.47246-5.2-1.6179-8.5-2.5455s-7.5267-2.1646-9.6757-2.9612c-3.1922-1.1832-4.3509-2.6747-6.0797-0.0856-2.7488 4.1167 0.82246 5.1337 5.8455 7.6687 2.7595 1.3927 7.2113 3.8283 9.8929 5.4124 6.4567 3.8143 16.574 7.901 19.535 7.9535 2.1994 0.039 1.9484-1.3711 1.3758-4.8352zm106.59 5.6505c0.58815-0.0409 3.4853-3.9026 6.4466-7.8901 11.431-15.392 26.184-27.923 35.63-30.176 7.4771-1.7831 8.203-2.0792 3.5 0.34143-5.1874 2.6699-20.445 12.872-23.981 15.99-2.7558 2.4301-3.5388 6.6488-1.6008 7.8466 0.56844 0.35131 5.1333-2.6629 9.7198-6.5567s8.495-7.0797 8.8979-7.0797 2.836-1.4573 5.2656-3.0971c8.7624-5.9137 18.199-9.5849 18.199-7.0187 0 0.55 0.45 1 1 1 1.0933 0 1.348-3.9294 0.41273-6.3668-1.8378-4.7892-29.247-8.5798-46.367-6.1435-5.8644 0.83459-9.6426 3.764-7.7146 5.6919 0.87336 0.87336 3.3048 0.9162 8.4481-0.3318 7.3001-1.7713 27.944-2.3734 36.22-0.90089 3.2679 0.58147 0.36731 0.83498-10.593 0.92587-12.157 0.10082-16.817 0.1386-21.41 1.719-6.3433 2.1824-8.9876 4.7884-13.406 7.3183-3.072 1.7591-6.6039 3.4105-9.1066 5.4639-2.6369 2.1801-7.7064 5.7244-11.831 7.8762-8.0084 4.1776-11.939 7.9726-11.939 10.098 0 2.5873 4.8425 8.2342 7.7864 9.1369 5.418 1.7451 10.891 2.4356 16.424 2.153zm60.974 9.1922 5.935 0.15964-0.64192-8.246c-0.35305-4.5353-0.64478-14.384-0.64791-21.887l-6e-3 -14.377-3.2871 0.2972c-2.8758-0.33691-5.2568-0.0594-10.214 2.5231-3.5553 1.8521-4.8539 2.6962-7.1686 4.224-4.0527 2.675-8.2798 5.9145-11.734 8.6337-6.6405 5.2502-6.7983 6.2244-11.086 22.54l-1.9137 7.2826 3.3058 0.38918c6.4499 0.75932 17.34 0.86403 24.06-0.22175 4.4834-0.4443 9.0054-1.3864 13.398-1.3185z" fill="#dc3834"/>
<path d="m271.74 265.74c-1.9095-1.348-3.8951-2.2195-4.4124-2.2195-1.2669 0-11.08-6.0969-11.075-6.9121 5e-3 -0.87738 7.1761-3.2805 10.72-5.0137 2.2412-1.0962 4.9462-2.4047 6.6653-3.4051 0.55 0 1.1736 1.5602 1.1736 2.4771 0 0.91683 1.453 4.6154 3.378 8.1175s3.2169 7.1175 3.2169 7.9236c0 2.299-5.7376 1.8057-9.6662-0.96773zm-13.855 6.2805c-1.375-0.78602-3.4436-1.6187-4.3846-1.6382-2.8647-0.0593-5.6246-4.5142-5.2953-7.8702 0.43409-4.4232 4.9698-4.6029 12.664-0.50166l5.8844 3.1363-2.1266 3.9182c-2.3388 4.3091-3.0687 5.0555-6.7424 2.9555zm-36.701 11.229c0.49169-4.2733 7.3904-6.0352 24.513-6.2606 7.5921-0.0999 15.292-0.1384 15.98-0.0855 1.4235 0.10944 0.76712 6.5012-0.65039 6.5012-0.50416 0-1.0088-0.85006-1.1921-1.394-0.53539-1.5883-11.646-3.2185-17.217-2.5262-5.03 0.62503-7.7533 2.308-11.616 3.507-3.1518 0.97829-8.059 3.0081-9.4324 3.0081-0.38522 0-0.55801-1.2375-0.38398-2.75zm-169.51 17.077c-0.825-0.53316-2.426-1.3036-3.9578-1.312-1.5319-8e-3 -3.9349-0.76865-5.3402-1.6894-2.0953-1.3729-2.4482-2.2081-1.9614-4.6423 0.9227-4.6135 7.0777-7.9268 7.0777-3.8531 0 1.024 1.6143 3.0088 4.1317 4.8166 4.3258 3.1066 8.1698 2.9797 5.9369 2.9797-0.58246 0-3.7269 4.378-3.387 4.928 0.78218 1.2656-0.54163 0.0381-2.5-1.2275zm206.4 18.423c-0.89867-7.5085-0.9504-12.523-0.19337-18.75 1.6138-13.274 2.333-17.141 4.4697-17.141 1.7569 0 1.6554 3.0856 1.661 15.891 3e-3 7.5625 0.295 17.462 0.64822 22l0.64222 8.25h-6.001z" fill="#fff"/>
<path d="m147.96 22.242c-0.58654-0.0088-1.246 0.37126-2.4082 1.1328-1.3754 0.9012-3.4957 2.9865-4.7129 4.6328s-3.1045 2.9922-4.1953 2.9922c-5.4383 0-8.1868 9.3228-3.123 10.594 1.3852 0.34765 3.6454 0.41771 5.0234 0.1543 3.2129-0.6142 3.7766 0.40175 2.9473 5.3105-0.5294 3.1332-1.3467 4.3314-3.8301 5.6035-3.8618 1.9782-4.6248 3.0563-4.6445 6.5742-0.0135 2.4055 0.52077 2.8702 4.418 3.8516 5.1674 1.3012 6.391 3.3798 3.7207 6.3184-1.0468 1.152-2.3971 3.0529-3 4.2246-0.9333 1.8139-1.7418 2.0579-5.4434 1.6406-5.609-0.6322-7.9467 1.4216-7.5137 6.6035 0.335 4.0121 0.78969 4.1213 10.805 2.6074l4.5-0.67969v5.6328c0 6.6965-1.0093 7.6567-7.7715 7.3926-5.722-0.2235-10.229 2.5423-10.229 6.2793 0 2.2189 0.4705 2.4337 6.5 2.9629 9.115 0.8 10.029 1.3396 8.9082 5.2461-0.50021 1.7441-0.9082 4.8728-0.9082 6.9531v3.7832l-2.9512-1.5273c-6.7302-3.4802-14.049-0.93885-14.049 4.877 0 4.8712 2.8687 6.9308 10.307 7.4024l6.1934 0.39258-0.32617 5.1523-0.32617 5.1504-7.2012-0.32031c-6.6054-0.2946-7.4344-0.10463-10.021 2.293-2.26 2.0945-2.6898 3.1511-2.1582 5.3203 1.088 4.4363 2.5295 5.11 11.998 5.6055 6.0904 0.3187 9.2966 0.91894 10 1.873 0.5695 0.7724 1.6483 1.6079 2.3984 1.8555 1.0065 0.3323 0.65727 1.2882-1.332 3.6524-2.3652 2.8108-2.9608 3.0606-4.8633 2.0371-3.304-1.7777-9.7946-2.7188-12.266-1.7793-1.3083 0.4975-2.7099 2.3635-3.4414 4.5801-1.2177 3.6896-1.1791 3.7898 2.8633 7.5605 3.3642 3.1381 4.8288 3.8223 8.1856 3.8223 4.911 0 9.6124 2.2333 10.484 4.9805 1.5188 4.7839-2.2476 5.2723-8.5723 1.1113-2.4318-1.5999-6.2558-3.3965-8.498-3.9922-2.407-0.6394-4.6033-2.0085-5.3633-3.3418-0.708-1.242-5.9851-5.3758-11.725-9.1875-11.965-7.9461-18.921-10.049-30.836-9.3144-11.637 0.718-19.248 5.6072-25.932 16.658-4.2415 7.013-5.8072 12.806-5.6836 21.045 0.1124 7.4917 1.4855 12.313 4.7207 16.576 1.2666 1.6692 3.661 6.3942 5.3203 10.5 1.6594 4.1058 3.9584 8.1398 5.1074 8.9648 7.6368 5.4836 7.4725 5.1703 7.3945 14.166-0.0692 7.9891-0.2037 8.466-3.25 11.508-2.0405 2.0375-3.1886 4.1848-3.209 6-0.039 3.4648-1.5409 5.5406-5.4805 7.5762-2.7944 1.4439-3.1814 1.4175-5.3613-0.34766-2.8639-2.3189-6.0056-2.4078-10.91-0.3125-2.0449 0.8736-5.7167 1.8877-8.1602 2.2539-4.0131 0.6015-4.6654 1.1011-6.7383 5.1621-1.2622 2.473-3.2451 8.3211-4.4082 12.996-3.736 15.018-1.4305 25.609 8.0625 37.021 6.7146 8.071 11.108 18.978 12.48 30.979 0.6012 5.257 3.4466 18.267 7.7637 35.5 1.1022 4.4 3.0872 12.725 4.4102 18.5 1.3229 5.775 2.6449 11.263 2.9395 12.197 0.29523 0.93294 1.1462 1.4622 1.8926 1.1758 1.0454-0.4012 1.1329-1.2534 0.38086-3.6992-0.5374-1.748-2.0416-7.7642-3.3438-13.371-1.302-5.6067-2.8086-11.018-3.3477-12.025-0.5391-1.0075-1.4837-4.746-2.0977-8.3066-0.6139-3.561-1.9859-10.075-3.0488-14.475s-2.648-12.596-3.5234-18.215c-2.228-14.3-6.0647-23.434-13.299-31.664-5.8769-6.685-8.6479-14.01-8.4199-22.252 0.3002-10.851 6.4627-28.583 9.3203-26.816 0.5195 0.321 3.4302-0.34747 6.4688-1.4844 3.0385-1.1368 6.749-2.0664 8.2461-2.0664 3.2302 0 5.2312 2.6679 4.125 5.5-0.42966 1.1-0.8129 4.0608-0.85156 6.5801-0.0658 4.2842 0.20459 4.7744 4.1797 7.5684 4.36 3.0646 8.751 4.8462 19.25 7.8144 3.3 0.933 7.125 2.0842 8.5 2.5566 1.375 0.4725 4.4125 1.1509 6.75 1.5078 3.4844 0.532 4.2527 1.038 4.2617 2.8106 0.0061 1.1892 0.3014 3.92 0.65625 6.0684l0.64453 3.9062-3.4746-0.56445c-4.78-0.776-18.694-7.552-33.059-16.098-2.5972-1.5451-5.5222-2.6529-6.5-2.4629-1.1673 0.2269 1.0539 2.0194 6.4707 5.2207 7.2154 4.2643 8.25 5.229 8.25 7.6836 0 2.0282 0.96471 3.5407 3.4746 5.4551 4.1123 3.1369 5.5025 8.1783 3.5586 12.895-3.4482 8.366-5.0328 14.34-5.0293 18.963 0.0055 7.3 2.3614 20.113 6.4531 35.096 4.5524 16.67 6.0861 23.032 8.0723 33.5 1.5137 7.9782 2.7486 11.054 3.9551 9.8477 0.28478-0.2848-0.12412-3.4031-0.91016-6.9316-0.786-3.528-2.0802-9.566-2.875-13.416s-3.5382-15.06-6.0957-24.912c-2.5575-9.852-5.1783-22.111-5.8262-27.24-1.2597-9.974-0.63406-13.319 4.3066-23.01 3.2878-6.448 1.9752-12.759-3.5078-16.877-1.417-1.0642-2.5762-2.5028-2.5762-3.1973 0-1.7309 0.47475-1.6193 4.8438 1.1387 2.093 1.3207 7.6488 3.6832 12.348 5.25 7.8292 2.6105 8.6491 3.1362 9.8066 6.2812 3.104 8.4339 12.053 14.679 22.279 15.547 9.036 0.767 11.207-0.40397 23.967-12.918 14.388-14.111 15.507-14.884 20.393-14.107 4.5302 0.72 6.742 2.5853 10.135 8.5449 3.5346 6.2082 5.8811 8.6746 12 12.611 9.574 6.1596 16.548 6.4962 27.729 1.3418 5.84-2.6923 6.4-2.7576 21-2.4453l15 0.32227-0.14649 12.5c-0.0846 7.195-1.0522 18.162-2.2812 25.836-3.4457 21.516-3.9023 24.766-5.0859 36.336-0.61891 6.0496-1.5741 12.452-2.125 14.229-0.55089 1.7767-0.69454 3.7292-0.31836 4.3379 1.2071 1.9531 2.5487-0.56458 3.0215-5.6719 0.7111-7.682 2.1426-18.289 5.3867-39.896 3.6892-24.571 5.361-40.995 4.5918-45.113-0.5542-2.9669-0.38-3.171 3.6875-4.3008 2.3485-0.65234 5.5081-1.3143 7.0215-1.4707 4.4456-0.4596 4.2599-1.4159-0.41016-2.1133-2.3879-0.3566-5.503-0.20398-6.9238 0.33789-3.882 1.4807-19.928 2.5009-27.158 1.7266l-6.375-0.6836 1.7891-7.1914c4.0687-16.36 4.5261-17.28 11.166-22.529 3.4302-2.7006 7.7991-5.4658 11.619-8.2988 0.3855-0.2859 3.1761-2.0733 6.3965-3.8828 4.6188-2.5955 6.8768-3.2542 10.691-3.1191 4.4407 0.1572 4.8245-0.0124 4.7109-2.0938-0.3196-5.8581 0.41329-9.7146 2.3047-12.119 2.0009-2.5437 2.1699-2.5776 5.623-1.1348 1.9577 0.81803 4.7701 1.4863 6.25 1.4863 4.2979 0 7.7428 4.4882 9.6035 12.512 0.8913 3.8435 2.543 9.1324 3.6699 11.752 2.6723 6.212 2.0532 9.8073-3.6562 21.236-2.4728 4.95-5.14 11.475-5.9277 14.5-0.7877 3.025-1.9339 6.79-2.5469 8.3652-0.613 1.575-2.4048 8.3252-3.9805 15-3.0473 12.908-3.1474 13.382-8.6348 41.135-3.8059 19.249-6.0953 28.241-7.7051 30.25-0.68912 0.8599-0.63306 1.25 0.17969 1.25 0.64983 0 0.90242 0.45 0.5625 1s-0.17234 1 0.37109 1c1.668 0 7.41-23.512 12.578-51.5 2.0773-11.249 7.0346-32.037 8.5879-36.01 0.6427-1.6438 2.0064-5.9654 3.0312-9.6035 1.0249-3.638 3.9047-10.661 6.3984-15.605 3.5134-6.9661 4.539-10.092 4.5547-13.885 0.0228-5.518-5.8288-25.041-9.8594-32.895-10.107-19.694-9.7114-18.627-14.277-38.5-1.4071-6.1241-1.943-10.061-2.1348-22.104 2.3682-3.8956 3.0652-8.4192 3.1641-15.01 0.1236-8.2386-1.4421-14.032-5.6836-21.045-6.6838-11.051-14.295-15.94-25.932-16.658-1.4894-0.0917-2.902-0.13972-4.2559-0.13672-9.4771 0.0192-16.111 2.4983-26.58 9.4512-5.7395 3.8117-11.017 7.9455-11.725 9.1875-0.75994 1.3333-2.9563 2.7024-5.3633 3.3418-0.89095 0.23669-2.052 0.69244-3.2559 1.2207v0.0117c-2.9166 0.92966-6.4057 2.6748-9.1191 4.7383-2.4425 1.8574-4.2089 2.4836-5.8457 2.0723-2.29-0.5756-2.2994-0.62859-0.44726-2.3047 1.0432-0.9442 5.6398-2.8019 10.215-4.127s8.7078-3.0244 9.1836-3.7754c1.3558-2.1401 1.0437-6.2073-0.66211-8.6426-1.9174-2.7375-4.8651-2.8128-11.486-0.29688l-5.0645 1.9238-0.81835-2.1738c-1.5741-4.1786-2.1834-8.4901-1.2793-9.0488 0.5014-0.3098 4.2402-1.0761 8.3086-1.7031 4.0684-0.6271 8.184-1.5566 9.1465-2.0664 2.6261-1.3911 2.1158-4.6459-1.2598-8.0215-2.7852-2.7853-3.4612-2.9867-9.002-2.6738l-5.9922 0.33789 4e-3 -5.1348c2e-3 -6.2515 1.8334-7.8247 10.35-8.8887 7.4134-0.9263 9.1765-3.405 5.2305-7.3516-2.1634-2.1638-3.5423-2.625-7.8516-2.625-2.8752 0-6.1285 0.32962-7.2285 0.73242-1.8731 0.6859-2.0006 0.3052-2.0234-6l-0.0234-6.7324 5.4219-0.24414c5.8044-0.2617 11.421-2.8372 11.928-5.4688 0.17-0.8827-0.72789-2.5738-1.9961-3.7578-2.3091-2.1557-2.9466-2.1827-11.307-0.48633-1.3264 0.2691-2.7646-0.57461-4.2715-2.5039-1.8292-2.3419-2.1503-3.6682-1.6484-6.8066 0.61361-3.8375 0.69105-3.8984 4.9688-3.8984 7.7919 0 10.074-5.2729 3.668-8.4727-1.8059-0.902-4.3112-2.7508-5.5684-4.1074s-2.8455-2.6529-3.5293-2.8809c-2.4157-0.8052 0.4476-5.5348 3.75-6.1953 5.4244-1.085 6.1402-6.7192 1.3066-10.283-0.82449-0.608-1.2369-1.7889-0.91602-2.625s-0.0564-2.7535-0.83789-4.2598c-2.0282-3.9092-1.773-5.5097 0.87878-5.5097 2.8656 0 4.6992-1.7563 4.6992-4.5s-1.8336-4.5-4.6992-4.5c-1.6577 0-2.3008-0.57555-2.3008-2.0645 0-6.9202-4.9966-7.6876-12.615-1.9355-2.9139 2.2-5.7119 4-6.2188 4-0.5069 0-1.4678-1.3175-2.1348-2.9277-0.667-1.6102-2.0601-3.6936-3.0957-4.6309-0.8752-0.79206-1.39-1.1904-1.9766-1.1992zm-0.51953 3.4395c0.86097-0.0025 1.5574 0.98911 3.2949 3.5762 1.562 2.3257 3.5455 4.3652 4.4082 4.5312 0.86271 0.1661 3.4444-1.2671 5.7383-3.1836s5.0833-3.7734 6.1973-4.127c2.8275-0.8974 5.1958 1.3238 4.4746 4.1973-0.4601 1.8332-0.17448 2.3242 1.3535 2.3242 5.3819 0 7.0288 3.3653 2.127 4.3457-3.822 0.7645-4.9397 4.5173-2.7266 9.1582 0.86357 1.8109 1.2998 3.5635 0.96875 3.8945-1.1434 1.1434-3.7764 0.52816-6.1289-1.4316-1.2985-1.0817-3.4061-1.9668-4.6836-1.9668-1.7868 0-2.3972-0.62952-2.6406-2.7324-0.2519-2.1762-0.8773-2.7772-3.0664-2.9414-2.4885-0.1867-2.75 0.10958-2.75 3.1094 0 2.8041-0.4239 3.4077-2.75 3.916-1.5125 0.33054-3.7994 0.89949-5.082 1.2637-2.2672 0.6438-2.3123 0.53177-1.6348-3.9863 0.9003-6.0038-0.50076-7.912-5.1641-7.0371-1.8447 0.34607-4.0514 0.36047-4.9043 0.0332-2.3392-0.8976 0.0109-4.625 2.916-4.625 2.3296 0 5.6191-2.7589 5.6191-4.7129 0-0.5809 1.0996-1.7777 2.4434-2.6582 0.89692-0.58766 1.4736-0.94575 1.9902-0.94726zm14.611 24.102c0.16002 0.0011 0.3317 0.01878 0.51758 0.05078 3.4089 0.5868 3.8714 1.9924 1.3476 4.0938-3.5829 2.9832-4.7742 2.629-3.9707-1.1777 0.4606-2.1823 0.98528-2.9744 2.1055-2.9668zm-11.07 1.252c1.5691 5e-3 2.9343 0.86147 3.6816 2.4727 1.3806 2.9766 0.52538 3.1431-4.6367 0.9043-2.7625-1.1981-3.175-1.7023-2-2.4453 0.99776-0.6309 2.0136-0.93462 2.9551-0.93164zm20.557 2.9863c2.0508-0.06062 3.825 0.64913 4.8711 2.1426 1.8633 2.6604 1.4084 3.5001-2.3438 4.3242-4.5646 1.003-5.4415 2.8461-5.2734 11.086 0.1174 5.7583-0.16234 7.4258-1.2441 7.4258-2.4875 0-5.541-5.0333-5.541-9.1348 0-2.769-0.4254-3.8652-1.5-3.8652-1.1683 0-1.5 1.3395-1.5 6.0586 0 3.7847-0.37536 5.8275-1 5.4414-0.55-0.3399-1-2.8411-1-5.5586 0-3.7253-0.3691-4.9414-1.5-4.9414-1.1122 0-1.5 1.1691-1.5 4.5215 0 3.838-0.37175 4.691-2.4688 5.6465-3.8878 1.7714-5.5266-0.30962-5.5449-7.041-8e-3 -3.0951-0.34592-6.1389-0.75-6.7656-0.4041-0.6267-2.6488-1.7104-4.9863-2.4082-4.6263-1.3811-5.2459-2.7413-2.4199-5.2988 2.4476-2.2154 3.9203-2.097 10.574 0.8457 7.3098 3.2327 12.214 3.2327 16.596 0 2.1526-1.588 4.4804-2.4179 6.5312-2.4785zm-28.906 18.254c0.23204 0.04307 0.28882 0.76624 0.31836 2.3203 0.1 5.2862 2.6264 6.5479 14.316 7.1445 11.475 0.5856 14.414-0.23753 14.926-4.1777l0.31641-2.4375 4.7852 2.0801c5.1912 2.2571 5.7612 4.3781 1.1172 4.1582-5.677-0.2688-10.337 1.5208-11.018 4.2324-0.59409 2.368-0.16665 8.1385 0.96876 13.076 0.7936 3.4511-2.2937 3.8736-5.2227 0.71484-2.0432-2.2035-2.4521-3.5562-2.2461-7.4375 0.2773-5.2248-0.34758-6.1068-3.4883-4.918-1.6627 0.6294-2.0812 1.5989-2 4.6328 0.0878 3.2795-0.45598 4.3079-3.7422 7.0859-4.4442 3.7569-3.9435 3.5604-5.3848 2.1191-0.73846-0.7385-0.93453-3.4764-0.56445-7.8906 0.31169-3.7179 0.25567-7.995-0.12305-9.5039-0.6749-2.6887-0.80136-2.73-6.3848-2.123-3.1335 0.34066-6.9348 0.90277-8.4473 1.25-2.4602 0.5648-2.75 0.35653-2.75-1.9844 0-2.5093 0.20976-2.6074 5.1016-2.3945 5.1921 0.2259 5.3234 0.14958 8.5898-4.8867 0.4652-0.71728 0.75115-1.094 0.93164-1.0605zm21.436 5.7246c0.51754 0 0.93946 0.45 0.93946 1s-0.70114 1-1.5586 1c-0.85748 0-1.2813-0.45-0.9414-1s1.043-1 1.5605-1zm-10.811 0.01563c0.9625-0.0084 1.75 0.43438 1.75 0.98438 0 1.2196-0.1128 1.2196-2 0-1.2819-0.82843-1.2456-0.97128 0.25-0.98438zm18.227 18.211c0.11624-0.10205 0.44978 0.31825 1.084 1.1855 0.75322 1.03 1.5304 2.3528 1.7266 2.9414 0.2487 0.74611 1.5801 0.70434 4.4004-0.14062 5.3041-1.5892 7.8048-1.5298 9.2559 0.21875 1.7364 2.0925-2.0046 3.803-9.8398 4.5-5.3934 0.4798-6.7046 0.98181-8.3555 3.1992-1.8727 2.5152-1.8872 2.872-0.35156 8.1543 0.88319 3.038 1.6055 6.7053 1.6055 8.1504 0 3.771-2.8258 4.4966-5.4102 1.3887-1.1495-1.3824-2.8718-2.7923-3.8281-3.1328-1.4221-0.5064-1.5587-1.0936-0.75-3.2207 1.2863-3.3836 1.2779-11.471-0.0117-11.471-0.54998 0-1.0587 1.2375-1.1289 2.75-0.2629 5.665-0.63804 7.415-1.8398 8.5664-0.97676 0.9358-1.0931 0.10741-0.55469-3.959 0.41532-3.1368 0.28795-5.3849-0.32812-5.7656-1.5182-0.9382-2.1299 0.68079-2.5606 6.7754-0.3405 4.8198-0.83259 5.9084-3.8711 8.5762v2e-3c-6.3011 5.532-9.4419 3.3458-8.2051-5.7109 1.4212-10.408 1.2749-11.373-2.0117-13.314-1.8443-1.0895-5.1495-1.8008-8.582-1.8457-6.1427-0.0804-7.4683-0.70672-5.7871-2.7324 1.3805-1.6634 7.0502-1.7603 8.6621-0.14844 0.9242 0.9242 1.8721 0.6927 4.2012-1.0293 2.848-2.1056 3.0059-2.1231 3.0059-0.31641 0 3.6018 2.5403 4.407 14.652 4.6445 10.39 0.2038 11.837 0.0209 13.586-1.7285 1.3256-1.3256 1.7939-2.8091 1.4531-4.5918-0.23312-1.2194-0.33305-1.8433-0.2168-1.9453zm-14.477 3.2734c1.2833 0 2.5208 0.5625 2.75 1.25 0.2748 0.82456-0.66111 1.25-2.75 1.25s-3.0248-0.42544-2.75-1.25c0.2292-0.6875 1.4667-1.25 2.75-1.25zm14.365 10.846c0.0909 0.0138 0.19865 0.16765 0.31836 0.4668 0.28891 0.7219 0.25417 1.5837-0.0781 1.916-0.33231 0.3323-0.5688-0.2583-0.5254-1.3125 0.03-0.7281 0.13359-1.0933 0.28516-1.0703zm-30.898 2.1172c0.0603 0.0225 0.12792 0.11523 0.19727 0.28711 0.27741 0.6875 0.27741 1.8125 0 2.5s-0.50586 0.125-0.50586-1.25c0-1.0312 0.12772-1.6045 0.30859-1.5371zm-13.383 8.5371c3.281 0 11.292 4.1778 13.74 7.166 2.4636 3.0065 6.7978 3.8135 8.9453 1.666 1.485-1.4855 13.802-1.1166 16.375 0.49024 2.6655 1.6646 7.2544-1.0074 7.6602-4.4609 0.2368-2.0154 1.1327-2.824 4.1191-3.7188 4.6034-1.3791 9.3692-0.58243 11.662 1.9512 1.9368 2.1401 2.1355 2.0306-7.0254 3.9141-4.1942 0.8624-6.8044 2.0837-8.875 4.1543-2.6325 2.6324-2.8795 3.4165-2.4023 7.6367 0.5928 5.2425-1.4556 11.632-3.5176 10.973-0.6953-0.2224-2.3758-2.0973-3.7344-4.168-2.0503-3.125-2.9374-3.697-5.2246-3.3613-1.5155 0.22243-2.8843 0.0209-3.041-0.44922-0.1567-0.47008-1.6583-0.37777-3.3359 0.20703-2.0979 0.7313-3.4307 2.1177-4.2695 4.4375-2.8752 7.9516-7.8696 3.371-6.7812-6.2188 1.3642-12.022 2.3061-10.652-7.7109-11.219-7.2318-0.4093-9.0905-0.85035-10.25-2.4394-0.77897-1.0676-1.416-2.2741-1.416-2.6797 0-1.4529 3.179-3.8809 5.082-3.8809zm30.918 4.0859c3.2561-0.0398 4.0854 0.21265 3 0.91406-1.7802 1.1505-2.8227 1.1505-5.5 0-1.5221-0.65405-0.9246-0.87226 2.5-0.91406zm-5.0664 20.064c0.66499-0.12309 1.0664 1.1981 1.0664 3.918 0 3.8461 0.149 4.0493 2.75 3.75 2.2804-0.2624 2.848-0.91411 3.3242-3.8164l0.57422-3.5 0.78711 2.7656c0.4335 1.5212 1.9112 3.6474 3.2832 4.7266 2.9105 2.2894 5.1154 1.5541 7.2402-2.416 0.7587-1.4176 2.1657-2.5762 3.127-2.5762 0.9612 0 1.9156-0.50476 2.1211-1.1211 0.2055-0.61633 2.2465-1.2263 4.5352-1.3555 3.4147-0.1926 4.6374 0.26266 6.8184 2.5391 1.4618 1.5258 2.3856 3.2153 2.0527 3.7539-0.3329 0.5387-3.8697 1.2977-7.8594 1.6875-4.2208 0.4124-7.9857 1.357-9.0039 2.2578-2.1007 1.858-2.2318 7.1414-0.31055 12.527 0.74358 2.0845 1.1218 4.672 0.83985 5.75-1.0054 3.8444-4.3737 1.7453-7.6836-4.7891-0.9054-1.7875-2.3012-3.25-3.1016-3.25-1.4505 0-2.1984-2.004-2.7188-7.2812-0.1508-1.5296-0.72539-2.6546-1.2754-2.5-0.58534 0.1645-0.90338 3.5986-0.76758 8.2812 0.15806 5.4504-0.0585 7.3626-0.67969 6-0.50144-1.1-0.94382-4.8125-0.98242-8.25-0.0546-4.8576-0.40451-6.25-1.5703-6.25-1.1419 0-1.5018 1.2535-1.5078 5.25-7e-3 4.4391-0.3541 5.4196-2.25 6.3555-1.2332 0.6087-4.3686 2.3303-6.9688 3.8242-7.2342 4.1563-9.1653 1.3782-3.7734-5.4297 6.346-8.012 2.3841-12-11.922-12-7.8475 0-10.078-0.90302-10.078-4.0781 0-3.9633 7.0481-5.7153 15.084-3.75 3.8611 0.9443 4.7289 1.6109 5.5 4.2246 1.6522 5.6018 8.6963 4.1655 11.383-2.3203 0.77196-1.8637 1.4496-2.832 1.9668-2.9277zm96.102 15.33c7.8804 2.9484 12.79 7.3229 17.332 16.268 3.6622 7.2132 3.9238 8.0666 3.9238 16.114 0 8.1454 0.32508 8.8029-3.416 14.84-0.71458-0.63474-1.9261-2.2457-3.0684-4.1367-3.4076-5.6422-6.5697-7.6936-11.99-7.7754-8.739-0.132-14.66 4.4453-19.656 15.195-2.9647 6.3779-3.5056 8.6504-3.5762 15.016-0.0457 4.1241 0.25888 9.4117 0.67774 11.75 0.41863 2.3366 0.41888 4.2278 0 4.2012-0.4192-0.0267-5.039-2.7892-10.264-6.1387s-10.984-6.9856-12.799-8.0801c-3.493-2.1061-9.9165-2.7157-14.383-1.3633l-2.6836 0.8125 1.4219-5.3418c0.78204-2.9382 1.4266-8.0418 1.4336-11.342 0.0105-5.2105 0.64404-10.271 1.957-15.398 0.15219-0.59431 0.29817-1.2022 0.44531-1.8027h0.0156c0.019-0.11965 0.0498-0.2326 0.0703-0.35156 0.41496-1.6998 0.84158-3.4173 1.3223-5.1602 0.31333-0.95165 0.63315-1.8624 0.93554-2.668 2.7504-7.3269 4.9526-9.7753 15.223-16.924 9.6682-6.7297 12.704-7.7122 23.107-9.0049 4.7907-0.52236 9.2936-0.3836 13.971 1.2902zm-173.84 2.4139c2.3455-0.1416 3.6305 6e-3 6.5254 0.3662 10.403 1.2927 13.439 2.2752 23.107 9.0049 10.27 7.1485 12.472 9.5969 15.223 16.924 2.7705 7.381 3.7919 21.651 2.0156 28.158-0.62372 2.2847-1.233 6.0709-1.3535 8.4141-0.1736 3.3747-0.53055 4.1203-1.7188 3.5879-9.532-4.271-23.589 3.8775-27.141 15.73-1.3392 4.47 0.18753 7.8087 6.707 14.668 6.1745 6.4967 7.7668 9.7294 7.1309 14.471-0.5957 4.441 1.1273 4.8093 2.5488 0.54492 1.4372-4.312-0.81832-9.7583-6.7324-16.262-6.9535-7.6466-8.1912-10.451-6.459-14.633 2.8151-6.7976 11.051-13.64 12.348-10.26 0.32863 0.8564 0.59766 2.8531 0.59766 4.4375 0 3.685 3.4699 12.966 7.2324 19.348 3.5682 6.052 11.601 16.607 12.639 16.607 0.4151 0 3.8761 1.882 7.6914 4.1836 3.8154 2.3016 9.4125 4.9506 12.438 5.8848l5.5 1.6973 0.66211 4.8672c0.36432 2.6764 0.7018 8.3234 0.75 12.549 0.0761 6.6707-0.1594 7.76-1.7832 8.2754-1.0286 0.3265-3.7122 2.4554-5.9648 4.7305l-4.0957 4.1367 1.9648-5.1738c1.0812-2.8454 1.9668-6.968 1.9668-9.1621 0-3.9656-0.0239-3.9883-3.873-3.9883-3.7234 0-3.8964-0.1492-4.4922-3.875-0.8221-5.144-6.2841-13.009-10.619-15.291-6.606-3.4774-17.995-2.0802-21.25 2.6074-1.3064 1.8814-0.8127 6.2353 1.2129 10.699 2.3872 5.2608 2.5987 8.8594 0.52148 8.8594-2.1975 0-1.8306 1.6796 0.5 2.2891 1.4353 0.3753 2 1.3644 2 3.502 0 5.7816 9.3164 8.8861 17.4 5.7988 4.4959-1.7173 9.5996-7.5087 9.5996-10.895 0-1.2652 0.87189-1.6953 3.4297-1.6953h3.4277l-0.52148 4.748c-0.2871 2.6117-0.8721 3.5952-1.4785 5.3398-0.5833 1.6782-1.2146 3.3551-2.0703 4.9121-0.22181 0.40355-0.48748 0.78507-0.78711 1.1348-1.846 2.1544-4.7015 5.8652-6.168 5.8652-0.5858 0-0.84001 0.86232-0.56445 1.916 0.5928 2.2668-4.2957 7.4055-8.582 9.0215v2e-3c-8.206 3.0936-20.566-1.0065-26.42-8.7656-3.611-4.7861-4.0078-6.1738-1.7656-6.1738 2.1858 0 1.8353-1.7575-0.49805-2.498-2.1218-0.6734-2.716-2.3846-3.2422-9.332l-0.32812-4.332 4.3945 0.65821c3.4158 0.51228 4.2945 0.36423 3.9512-0.66797-0.2428-0.73021-1.5915-1.3731-2.9961-1.4277-4.2845-0.16664-5.7812-1.1927-5.7812-3.9668 0-4.3693-2.8611-8.6683-9.2969-13.963-3.5892-2.9528-7.0879-6.9205-8.4727-9.6113-3.7008-7.191-5.9871-17.526-5.4902-24.824 0.7389-10.852-0.29132-14.743-4.7324-17.844-3.9677-2.7705-7.2698-7.6487-8.3867-12.395-0.3501-1.4874-2.5456-5.7508-4.8789-9.4746-4.138-6.6044-4.2422-6.9836-4.2422-15.391 0-8.0476 0.26163-8.901 3.9238-16.114 4.542-8.9455 9.4516-13.647 17.332-16.596 3.0528-1.1422 5.0998-1.1875 7.4453-1.3291zm49.514 3.4121c0.53672 0.0328 1.1984 0.13543 2.0391 0.28906 6.8117 1.2448 8.0944 2.0815 8.4336 5.5039 0.4864 4.9082 2.8439 5.774 8.3887 3.0801 4.0564-1.9708 5.1029-2.1104 8.1836-1.0938 1.9529 0.6445 5.8802 0.92245 8.7812 0.62304 4.6625-0.4812 5.4829-0.2719 7.3496 1.875 1.1556 1.3291 2.9347 2.416 3.9531 2.416 2.4009 0 5.1621-3.0791 5.1621-5.7578 0-1.6158 1.1946-2.5468 5.1738-4.0312 6.042-2.2539 7.9069-1.9985 9.4648 1.3027 1.5646 3.3153 0.0688 4.8973-6.1387 6.4902-8.5518 2.1944-14.266 4.9916-14.863 7.2773-0.6586 2.5187 0.9173 4.7188 3.3789 4.7188 2.9858 0 3.9143 4.3476 1.6035 7.5078-1.3451 1.8394-1.541 1.8259-7.5-0.54101-3.3653-1.3367-6.1754-3.0022-6.2441-3.6992-0.0688-0.697-0.2375-1.7156-0.375-2.2656s-0.3063-2.35-0.375-4c-0.082-1.9698-0.64914-3-1.6523-3-1.2787 0-1.4227 1.0368-0.87696 6.3633 0.43905 4.2854 0.28628 6.5908-0.4707 7.0586-0.79439 0.491-1.125-1.5219-1.125-6.8633 0-4.1574-0.39375-7.5586-0.875-7.5586-0.9958 0-2.125 4.8491-2.125 9.125 0 2.412-0.40826 2.875-2.5391 2.875-1.397 0-4.3047 0.9-6.4609 2v-0.00195c-5.7441 2.9304-8 2.5931-8-1.1992 0-1.0738 1.4871-2.744 3.5-3.9316 4.0761-2.405 4.5427-5.2732 1.4883-9.1562-1.9286-2.4512-3.3238-2.9933-10.877-4.2324-4.1497-0.6807-6.068-1.6686-8.5312-4.3906-1.5917-1.7588-1.7116-2.5069-0.74024-4.6387 0.77865-1.7089 1.259-2.243 2.8691-2.1445zm28.85 2.6953c0.79193 0 1.4404 0.6759 1.4414 1.5-5.4e-4 1.54-0.57389 1.7137-2.7559 0.83399-1.5756-0.6352-0.61885-2.334 1.3144-2.334zm9.084 0.5625c0.66369-0.10659 1.3574 0.44835 1.3574 1.4961 0 0.51754-0.66101 0.9414-1.4688 0.9414-0.89221 0-1.2428-0.58843-0.89453-1.4961 0.22136-0.57683 0.60764-0.87745 1.0059-0.94141zm30.979 11.445c1.2734-0.0232 1.2228 1.2496 0.25391 4.4316-0.42484 1.0847-0.83661 2.4178-1.2344 3.8809-0.10901 0.38135-0.20726 0.75857-0.29882 1.1328-1.3362 5.314-2.4077 12.302-2.7188 18.551-0.5284 10.615-2.9484 19.147-6.4492 22.736-1.4796 1.5171-4.0541 4.4895-5.7207 6.6055-2.3957 3.0417-3.5463 3.7488-5.4922 3.377l-2.4609-0.4707 2.25-0.74414c2.9598-0.9781 2.8826-2.5098-0.12695-2.5098-2.8462 0-4.9291 2.219-4.416 4.7031 0.2737 1.3252 1.1749 1.7361 3.4277 1.5645l3.0566-0.23242-1.0957 3.5664c-0.86913 2.8301-1.1642 3.1241-1.4238 1.4238-0.2554-1.6724-0.9141-2.0751-3-1.834-2.1142 0.2444-2.7409 0.91242-3.002 3.1992-0.313 2.7416-0.1709 2.8596 2.75 2.2754 2.5612-0.5123 3.0801-0.3005 3.0801 1.2539 0 1.0281-1.3047 3.2664-2.9004 4.9746-2.7494 2.9432-3.2962 3.1074-10.441 3.1074-4.2398 0-7.8263-0.46548-8.1953-1.0625-0.3609-0.584-1.653-1.4412-2.8711-1.9043-1.2182-0.4631-3.9884-3.4721-6.1543-6.6875-2.1659-3.2156-6.268-8.4774-9.1172-11.691-7.8742-8.882-8.8997-11.644-7.4531-20.08 2.5735-15.007 2.558-20.506-0.0742-28.324-2.6478-7.8645-2.4002-8.2909 3.3359-5.7676 5.5819 2.4555 7.7286 4.8128 7.1484 7.8476-0.7576 3.9636 1.2327 5.6699 6.6172 5.6699 4.365 0 4.769 0.23 6.5742 3.75 5.058 9.8626 10.239 11.741 16.131 5.8496 1.87-1.87 3.4004-4.0662 3.4004-4.8789 0-2.3034 2.9689-4.203 6.0586-3.8789 2.1374 0.2242 3.2333-0.35901 4.5977-2.4414 0.98563-1.5043 1.8362-3.7176 1.8887-4.918 0.1045-2.3898 2.4625-5.5096 5.4844-8.0332 1.5109-1.2618 3.1884-2.3749 4.832-3.1719 0.14025-0.068 0.27818-0.12592 0.41797-0.19141 1.5397-0.66103 2.646-1.0654 3.3418-1.0781zm-42.189 15.76c1.5097-0.0358 2.4595 0.48282 3.0684 1.6524 1.5083 2.8976 3.1847 2.9852 5.8652 0.30468 2.2533-2.2533 3.6939-2.3024 6.4102-0.21875 0.9492 0.728-5.3774 10.447-7.4004 11.369-1.3586 0.61903-2.5948 1.125-2.748 1.125-1.3598 0-8.627-11.284-8.627-13.395 0-0.26038 1.2375-0.61503 2.75-0.78906 0.23917-0.0275 0.46597-0.0437 0.68164-0.0488zm99.066 2.375c11.035 0.564 13.527 5.2124 20.553 38.357 2.3221 10.954 4.0906 16.694 6.5625 21.283 1.8616 3.4564 3.3848 6.9439 3.3848 7.75h2e-3c0 2.299-5.0441 1.6894-8.9727-1.084-1.9096-1.3481-3.867-2.4512-4.3497-2.4512-0.899 0-9.7379-5.7912-14.678-8.5644-2.1782-1.223 0.2315 0.0585-6.5957-3.5586-0.3874-0.2052-3.0971-1.7959-6.3887-3.3691-5.2101-2.4902-6.2021-3.4288-7.6621-7.252-2.2406-5.866-2.2384-17.302 6e-3 -23.934 3.622-10.706 10.85-17.55 18.139-17.178zm-71.686 15.855c-1.149-0.039-2.8294 0.4173-3.6133 1.2012-1.2935 1.2935-1.6198 5.0463-0.5332 6.1328 0.36669 0.36667 1.7876 0.66602 3.1562 0.66602 2.4608 0 2.4665-0.0226 0.59571-2.0898-1.7874-1.975-1.7953-2.1595-0.1543-3.3594 0.95517-0.6985 1.7363-1.5583 1.7363-1.9102 0-0.41544-0.49808-0.61723-1.1875-0.64062zm-39.316 2.252c-0.45513-4e-3 -0.94922 0.011-1.4844 0.0469-5.8483 0.3916-6.4351 2.476-0.82422 2.9277l4.3125 0.34766-3.791 1.7441c-2.0847 0.959-3.5191 2.1795-3.1894 2.7129 0.8052 1.3029 0.96918 1.2716 5.5215-1.0508 2.178-1.1112 3.9514-2.5737 3.9434-3.25-0.0301-2.4194-1.3024-3.4505-4.4883-3.4785zm17.596 3.1113c-6.2166 0.0943-9.0849 0.5091-9.0879 1.3144-3e-3 0.64713 0.78359 1.3743 1.7461 1.6172 1.596 0.40284 5.8423 0.10424 12.164-0.85547 1.3274-0.2015 2.8295-0.78064 3.3379-1.2891 0.5659-0.56586-2.6002-0.87151-8.1602-0.78711zm18.857 5.6367c-1.6605 0-3.9492 3.2296-3.9492 5.5723 0 1.9238 0.5196 2.4277 2.5 2.4277 1.375 0 2.5-0.45 2.5-1s-0.71315-1-1.584-1c-1.9426 0-1.313-2.4496 0.66601-2.5918 0.7799-0.0561 1.8112-0.17206 2.291-0.25586 1.0336-0.1805-1.2514-3.1523-2.4238-3.1523zm-35.318 3.1191c-2.1116 0.0697-4.6309 0.98768-4.6309 1.9727 0 0.57888 1.1976 0.90733 2.6621 0.73047 3.5456-0.4282 4.171 1.8411 0.91601 3.3242-2.6249 1.196-3.1044 1.9952-1.9121 3.1875 1.0244 1.0244 1.5232 0.83739 4.0195-1.5078 2.6192-2.4607 3.0698-6.5986 0.8125-7.4648-0.50515-0.19385-1.1633-0.26541-1.8672-0.24219zm-27.807 1.3398c3.134-0.0549 8.2585 2.22 9.8965 4.627 0.9039 1.3283 3.9244 4.911 6.7109 7.9609 6.7741 7.414 14.742 19.333 14.08 21.062-0.3474 0.9082 0.94816 2.1086 3.7266 3.4531 3.3855 1.6383 4.1929 2.5194 3.9375 4.2988-0.2107 1.4681 0.5638 2.9354 2.25 4.2617 1.4142 1.1124 2.5723 2.8911 2.5723 3.9512 0 1.3467 0.69539 1.9258 2.3086 1.9258 3.1471 0 5.6186-1.9957 6.1914-5 0.2621-1.375 1.2129-3.0401 2.1133-3.7012 0.9622-0.7064 1.3778-1.8776 1.0078-2.8418-0.4246-1.1066-4.1e-4 -1.8052 1.3047-2.1465 2.4143-0.6313 3.3568-2.9132 2.1406-5.1856-0.53819-1.0056-0.5585-2.3277-0.0488-3.1523 0.7267-1.1758 1.2729-1.0512 3.1797 0.72265 1.2665 1.1782 5.3416 3.1191 9.0566 4.3125s6.4952 2.5898 6.1777 3.1035c-1.4109 2.2819-11.602 8.8906-18.125 11.754-11.849 5.2001-20.375 3.9758-35.973-5.168-6.8682-4.0266-8.8017-5.808-13.506-12.447-6.5223-9.205-10.804-18.808-11.547-25.891-0.4641-4.4272-0.27776-5.2236 1.3398-5.7285 0.35045-0.10938 0.75736-0.16403 1.2051-0.17188zm85.709 0.19336c0.39436-8e-3 0.79181-6e-3 1.1914 4e-3 4.636 0.1156 6.9004 0.6891 8.8848 2.25 1.4647 1.1521-0.97123-0.431 3.3848 2.0957s16.066 8.7125 23.059 12.508c6.993 3.7949 14.168 7.1232 18.826 10.355 1.443 1.0012 4.9268 3.0547 7.7422 4.5645l5.1191 2.7461-2.1191 3.9043c-2.2483 4.1426-3.018 4.4997-5.9785 2.7793-3.807-2.2124-15.613-3.8905-31.141-4.4277-25.122-0.8692-44.927-3.994-50.041-7.8945-2.9478-2.2484-3.0846-2.6457-2.4727-7.207 1.6963-12.649 11.32-21.431 23.545-21.678zm-36.33 1.3359c-1.3035 0.013-3.2925 0.22071-5.9531 0.625-9.4099 1.4299-9.189 1.3564-6.8574 2.2715 1.96 0.7693 11.691-0.20021 13.551-1.3496 1.7004-1.0509 1.4322-1.5686-0.74024-1.5469zm-16.502 8.1426c-2.4251-0.0855-4.9405 1.6738-4.1016 3.0312 0.3402 0.55033 1.1692 0.445 2.0137-0.25586 0.7894-0.65508 1.761-0.85295 2.1602-0.43945 0.3992 0.4135-0.28594 1.4337-1.5234 2.2656-1.2375 0.832-2.25 1.9077-2.25 2.3906 0 1.6617 2.926 0.87405 4.9922-1.3438 2.568-2.7565 2.2184-5.1745-0.8086-5.6055-0.15984-0.0228-0.32075-0.0373-0.48242-0.043zm14.834 3.3652c-3.2481-0.0472-7.7001 0.33686-8.3457 0.98243-0.34748 0.3474-0.0504 0.99056 0.66016 1.4297 0.7105 0.43914 3.1721 0.43335 5.4707-0.0117 2.2986-0.44508 4.5172-0.82766 4.9297-0.85156s0.75-0.45775 0.75-0.96289c0-0.37434-1.516-0.5576-3.4648-0.58594zm-13.447 4.5039c-1.8075 0-5.0879 3.3674-5.0879 5.2227 0 1.2792 4.4779 0.87907 6.4707-0.57813 2.2834-1.6697 1.398-4.6445-1.3828-4.6445zm9.9023 8.1172c-1.8805 0.0368-4.4446 0.7145-4.7461 1.6328-0.2365 0.72033 0.4384 1.25 1.5918 1.25 2.7426 0 5.1641-1.0175 5.1641-2.1699 0-0.52633-0.88148-0.735-2.0098-0.71289zm-91.486 5.2988c0.7832 0.0757 1.5111 1.6467 2.2344 4.6914 2.473 10.411 8.8254 21.257 13.641 23.287 2.0144 0.8495 1.9712 0.94773-0.88086 1.9863-1.65 0.6008-5.25 2.2481-8 3.6621l-5 2.5723-7.5-2.8359c-8.2759-3.1276-11.161-5.6554-10.336-9.0606 0.29566-1.2198 0.76898-3.4562 1.0508-4.9688s1.1946-2.4566 1.8984-2.75c1.6455-0.686 2.8198-2.6713 4.8945-3.4336 2.6667-1.4362 3.7694-2.8711 4.5938-5.9785 1.2986-4.8954 2.3973-7.2692 3.4043-7.1719zm98.91 2.9297c3.6095-0.039 4.3495 1.2516 0.32422 2.0566-7.1744 1.435-12.328 1.4686-15.236 0.0996-2.9716-1.3986-2.9431-1.4121 3-1.5137 3.2998-0.0564 7.8879-0.29939 10.195-0.53906 0.62719-0.0651 1.2012-0.0979 1.7168-0.10352zm29.082 2.9473 5.5 0.78125c3.025 0.42984 6.3878 0.81331 7.4727 0.85351 1.8461 0.0683 1.8269 0.17563-0.30664 1.6699-2.9701 2.0803-2.5922 6.3972 0.70312 8.0312 2.2419 1.1117 2.2665 1.2298 0.48438 2.1836-1.3599 0.72786-2.4168 0.61536-3.8086-0.40234-4.696-3.4336-16.494-0.42119-21.934 5.5996-3.2054 3.5478-5.5919 9.1376-5.6055 13.127-3e-3 0.8993-1.0964 2.349-2.4297 3.2227-3.4807 2.2806-3.9728 4.9477-1.7226 9.3359 2.4406 4.7596 5.6617 7.6999 10.045 9.168 4.28 1.4335 14.275 1.4777 17.305 0.0762 1.2634-0.5845 4.9192-4.6739 8.125-9.0879s6.0825-7.7729 6.3926-7.4629c0.31002 0.3101-0.0236 1.2728-0.74219 2.1387-1.0898 1.3131-1.0259 1.8569 0.39062 3.2734 1.5979 1.5975 1.8739 1.5974 4.6641-4e-3 1.6311-0.93615 2.9668-1.2617 2.9668-0.72266 0 2.507-4.3552 17.682-5.668 19.75-0.8114 1.2781-4.4091 3.6406-7.9961 5.25v2e-3c-8.025 3.6007-14.057 3.7979-20.254 0.66211-5.8924-2.982-13.058-10.162-15.852-15.885-2.2308-4.5694-5.8084-7.8535-8.5566-7.8535-1.6365 0-2.6528-6.766-2.666-17.75-8e-3 -6.4293 0.20579-7.25 1.8711-7.25 5.13 0 18.817-7.1278 25.783-13.428zm-32.006 2.1914c0.86873 0.0215 1.559 0.16834 1.8691 0.47851 0.55266 0.55263 0.81061 1.1777 0.57227 1.3887-0.2384 0.21099-2.5918 0.61509-5.2285 0.89844-3.2479 0.34904-4.6748 0.15914-4.4258-0.58789 0.3927-1.1782 4.6067-2.2423 7.2129-2.1777zm67.898 0.60937c14.971 0.1477 30.641 2.9472 32.02 6.5391 0.93527 2.4374 0.68119 6.3672-0.41211 6.3672-0.55 0-1-0.45-1-1 0-2.5662-9.6106 1.1058-18.373 7.0195-2.4296 1.6397-4.7475 2.9805-5.1504 2.9805s-4.4838 3.1863-9.0703 7.0801c-4.5865 3.8939-8.8046 6.7927-9.373 6.4414-1.938-1.1978-1.039-5.1851 1.7168-7.6152 3.536-3.118 18.563-13.088 23.75-15.758 4.703-2.4206 3.9771-2.5878-3.5-0.80469-9.446 2.252-24.546 15.014-35.977 30.406-2.9596 3.9851-5.8645 7.2794-6.4551 7.3242-0.58882 0.041-1.9671 0.19935-3.0664 0.35156-2.194 0.3038-8.307-0.70348-13-2.1426-2.9439-0.9027-7.5-6.3053-7.5-8.8926 0-2.1253 3.9916-5.2658 12-9.4434 4.1246-2.1518 9.6561-5.6969 12.293-7.877 2.6369-2.1801 4.4295-3.1651 6.75-4.584 5.047-3.086 10.377-7.6458 15.566-8.5234 4.789-0.81 8.6379-1.9871 20.795-2.0879 10.96-0.0909 13.862-0.34431 10.594-0.92578-8.276-1.4726-29.003-1.074-36.303 0.69726-5.1433 1.248-7.0837 1.3675-7.957 0.49414-1.928-1.9279 1.6063-4.4076 7.4707-5.2422 4.28-0.60908 9.1912-0.85392 14.182-0.80469zm-69.891 3.9062c0.88992 0 1.3399 0.45 1 1s-0.78992 1-1 1-0.6601-0.45-1-1 0.11008-1 1-1zm37.074 7.5508c1.0289-0.0359 1.9935 0.0969 2.8535 0.42383 2.4389 0.9273 2.6173 1.2644 1.4297 2.6953-1.798 2.1656-10.218 8.321-15.947 11.658-5.5168 3.2132-5.9121 3.2547-5.9121 0.60743 0-6.6973 10.374-15.133 17.576-15.385zm-79.045 2.4492c3.0427 0 7.0494 0.63516 8.9043 1.4102 3.8254 1.599 8.3332 8.3913 9.2285 13.908l0.5625 3.4688-5.1641 1.1055 2e-3 2e-3c-5.874 1.2596-16.726 1.4809-17.389 0.35547-0.24282-0.4125-0.77764-2.3175-1.1894-4.2344-0.4118-1.9169-1.3181-4.3919-2.0137-5.5-4.2209-6.7233-1.6754-10.516 7.0586-10.516zm-32.316 9.0606c1.9435-0.0673 3.2307 1.9598 4.2461 6.6894 0.661 3.0789 0.54964 3.2459-2.1309 3.1543-4.299-0.1469-15.426-3.2804-15.641-4.4043-0.197-1.0291 10.511-5.3349 13.525-5.4394zm18.189 11.984c-0.5216-2e-3 -0.86914 0.0688-0.86914 0.6875 0 0.82502 0.675 1.0371 1.5 1.0371s1.5-0.21211 1.5-1.0371-0.73362-0.67773-1.5586-0.67773c-0.20625 0-0.3984-9e-3 -0.57227-0.01zm28.287 1.6738c1.9893 0.0214 3.3086 0.0944 3.3086 0.23437 0 0.34301-1.2542 2.1247-2.7871 3.9609h-2e-3c-2.3479 2.8124-3.5694 3.396-7.75 3.7031-6.147 0.4516-9.1902-0.77322-10.504-4.2285-0.55739-1.4661-0.88921-2.773-0.73632-2.9043 0.50325-0.4323 12.503-0.82985 18.471-0.76563z"/>
<path d="m95.333 320.58 41.407 6.76" fill="none" stroke="#000" stroke-dasharray="2, 6" stroke-linecap="round" stroke-width="2"/>
<g fill="none" stroke="#000" stroke-linecap="round" stroke-width="2">
<path d="m81.179 309.67-19.64-167.27"/>
<path d="m202.29 246.82 26.187-117.51"/>
<path d="m254.34 232.09 32.406-45.172"/>
<path d="m225.86 272.53 55.647-34.873"/>
<path d="m228.15 294.28 70.377 92.964"/>
<path d="m234.7 321.78-31.424 64.813"/>
<path d="m187.24 310.98-26.842 25.532"/>
</g>
<switch>
<g systemLanguage="es">
<g font-family="sans-serif" font-size="14px" font-weight="bold" letter-spacing="0px" text-anchor="middle" word-spacing="0px">
<text>
<tspan x="249.49538" y="116.8649">Piramidal</tspan>
<tspan x="55.057491" y="113.28966">Obturador</tspan>
<tspan x="55.057491" y="131.95633">externo</tspan>
<tspan x="309.07062" y="161.73546">Glteo</tspan>
<tspan x="309.07062" y="180.40213">menor</tspan>
<tspan x="318.23605" y="231.1308">Gmino</tspan>
<tspan x="318.23605" y="249.79747">superior</tspan>
<tspan x="306.45193" y="401.34576">Gmino</tspan>
<tspan x="306.45193" y="420.01242">inferior</tspan>
<tspan x="192.14214" y="401.34576">cuadrado</tspan>
<tspan x="192.14214" y="420.01242">crural</tspan>
<tspan x="146.71172" y="355.51868">Obturador</tspan>
<tspan x="146.71172" y="374.18536">interno</tspan>
</text>
</g>
</g>
<g>
<g font-family="sans-serif" font-size="14px" font-weight="bold" letter-spacing="0px" text-anchor="middle" word-spacing="0px">
<text>
<tspan x="249.49538" y="116.8649">Piriformis</tspan>
<tspan x="55.057491" y="113.28966">Obturator</tspan>
<tspan x="55.057491" y="131.95633">externus</tspan>
<tspan x="309.07062" y="161.73546">Gluteus</tspan>
<tspan x="309.07062" y="180.40213">minimus</tspan>
<tspan x="318.23605" y="231.1308">Superior</tspan>
<tspan x="318.23605" y="249.79747">gemellus</tspan>
<tspan x="306.45193" y="401.34576">Inferior</tspan>
<tspan x="306.45193" y="420.01242">gemellus</tspan>
<tspan x="192.14214" y="401.34576">Quadratus</tspan>
<tspan x="192.14214" y="420.01242">femoris</tspan>
<tspan x="146.71172" y="355.51868">Obturator</tspan>
<tspan x="146.71172" y="374.18536">internus</tspan>
</text>
</g>
</g>
</switch>
</svg>
